<?xml version="1.0" encoding="UTF-8" standalone="no"?>
<!-- Created with Inkscape (http://www.inkscape.org/) -->

<svg
   width="512"
   height="512"
   viewBox="0 0 512 512"
   version="1.1"
   id="svg1"
   xmlns="http://www.w3.org/2000/svg"
   xmlns:svg="http://www.w3.org/2000/svg">
  <defs
     id="defs1">
    <linearGradient
       id="swatch69">
      <stop
         style="stop-color:#000000;stop-opacity:1;"
         offset="0"
         id="stop69" />
    </linearGradient>
    <meshgradient
       id="meshgradient738"
       gradientUnits="userSpaceOnUse"
       x="79"
       y="1">
      <meshrow
         id="meshrow2190">
        <meshpatch
           id="meshpatch2190">
          <stop
             path="c 11.6667,0  18.3333,0  30,0"
             style="stop-color:#1affb3;stop-opacity:1"
             id="stop2190" />
          <stop
             path="c 0,5.83333  0,11.6667  0,17.5"
             style="stop-color:#1affb3;stop-opacity:1"
             id="stop2191" />
          <stop
             path="c -11.6667,0  -23.3333,0  -35,0"
             style="stop-color:#ffffff;stop-opacity:1"
             id="stop2192" />
          <stop
             path="c 0,-5.83333  5,-11.6667  5,-17.5"
             style="stop-color:#ffffff;stop-opacity:1"
             id="stop2193" />
        </meshpatch>
        <meshpatch
           id="meshpatch2193">
          <stop
             path="c 11.6667,0  23.3333,0  35,0"
             id="stop2194" />
          <stop
             path="c 0,5.83333  0,11.6667  0,17.5"
             style="stop-color:#1affb3;stop-opacity:1"
             id="stop2195" />
          <stop
             path="c -11.6667,0  -23.3333,0  -35,0"
             style="stop-color:#ffffff;stop-opacity:1"
             id="stop2196" />
        </meshpatch>
      </meshrow>
      <meshrow
         id="meshrow2196">
        <meshpatch
           id="meshpatch2196">
          <stop
             path="c 0,5.83333  0,11.6667  0,17.5"
             id="stop2197" />
          <stop
             path="c -11.6667,0  -23.3333,0  -35,0"
             style="stop-color:#1affb3;stop-opacity:1"
             id="stop2198" />
          <stop
             path="c 0,-5.83333  0,-11.6667  0,-17.5"
             style="stop-color:#1affb3;stop-opacity:1"
             id="stop2199" />
        </meshpatch>
        <meshpatch
           id="meshpatch2199">
          <stop
             path="c 0,5.83333  0,11.6667  0,17.5"
             id="stop2200" />
          <stop
             path="c -11.6667,0  -23.3333,0  -35,0"
             style="stop-color:#1affb3;stop-opacity:1"
             id="stop2201" />
        </meshpatch>
      </meshrow>
    </meshgradient>
  </defs>
  <g
     id="layer1">
    <path
       style="fill:#000000"
       d="M 17,41 12,76 H 82 V 41 Z"
       id="path3" />
    <path
       style="fill:#ffffff"
       d="M 16,40 11,75 H 81 V 40 Z"
       id="path6" />
    <path
       style="fill:#000000"
       d="m 17,81 -5,35 H 82 V 81 Z"
       id="path3-8" />
    <path
       style="fill:#ffffff"
       d="m 16,80 -5,35 H 81 V 80 Z"
       id="path6-2" />
    <path
       style="fill:#000000"
       d="m 150,41 5,35 H 85 V 41 Z"
       id="path8" />
    <path
       style="fill:#ffffff"
       d="m 149,40 5,35 H 84 V 40 Z"
       id="path9" />
    <path
       style="fill:#000000"
       d="M 7,2 2.0000005,37 H 72 V 2 Z"
       id="path3-1" />
    <path
       style="fill:#ffffff"
       d="M 6,1 1.0000005,36 H 71 V 1 Z"
       id="path6-5" />
    <path
       style="fill:#000000"
       d="m 80,2 -5,35 h 70 V 2 Z"
       id="path3-1-1" />
    <path
       style="fill:#000000"
       d="m 285,5 5,35 H 220 V 5 Z"
       id="path8-2" />
    <path
       style="fill:#ffffff"
       d="m 284,4 5,35 H 219 V 4 Z"
       id="path9-7" />
    <path
       style="fill:#000000"
       d="m 150,81 5,35 H 85 V 81 Z"
       id="path12" />
    <path
       style="fill:#ffffff"
       d="m 149,80 5,35 H 84 V 80 Z"
       id="path13" />
    <g
       id="g30"
       style="fill:#000000">
      <path
         style="fill:#000000"
         d="M 20,125 5,150 h 10 l 15,-25 z"
         id="path27" />
      <path
         style="fill:#000000"
         d="M 20,125 5,150 h 10 l 15,-25 z"
         id="path28" />
      <path
         style="fill:#000000"
         d="M 33,125 18,150 H 28 L 43,125 Z"
         id="path29" />
      <path
         style="fill:#000000"
         d="M 46,125 31,150 H 147 V 135.02309 A 10.023088,10.023088 45 0 0 136.97691,125 Z"
         id="path30" />
    </g>
    <g
       id="g27"
       transform="translate(-1,-1)">
      <path
         style="fill:#ffffff"
         d="M 20,125 5,150 h 10 l 15,-25 z"
         id="path22" />
      <path
         style="fill:#ffffff"
         d="M 20,125 5,150 h 10 l 15,-25 z"
         id="path23" />
      <path
         style="fill:#ffffff"
         d="M 33,125 18,150 H 28 L 43,125 Z"
         id="path24" />
      <path
         style="fill:#ffffff"
         d="M 46,125 31,150 H 147 V 135.02309 A 10.023088,10.023088 45 0 0 136.97691,125 Z"
         id="path25" />
    </g>
    <g
       id="g34"
       style="fill:#000000"
       transform="matrix(-1,0,0,1,152,32)">
      <path
         style="fill:#000000"
         d="M 20,125 5,150 h 10 l 15,-25 z"
         id="path31" />
      <path
         style="fill:#000000"
         d="M 20,125 5,150 h 10 l 15,-25 z"
         id="path32" />
      <path
         style="fill:#000000"
         d="M 33,125 18,150 H 28 L 43,125 Z"
         id="path33" />
      <path
         style="fill:#000000"
         d="M 46,125 31,150 H 147 V 135.02309 A 10.023088,10.023088 45 0 0 136.97691,125 Z"
         id="path34" />
    </g>
    <g
       id="g38"
       transform="matrix(-1,0,0,1,151,31)">
      <path
         style="fill:#ffffff"
         d="M 20,125 5,150 h 10 l 15,-25 z"
         id="path35" />
      <path
         style="fill:#ffffff"
         d="M 20,125 5,150 h 10 l 15,-25 z"
         id="path36" />
      <path
         style="fill:#ffffff"
         d="M 33,125 18,150 H 28 L 43,125 Z"
         id="path37" />
      <path
         style="fill:#ffffff"
         d="M 46,125 31,150 H 147 V 135.02309 A 10.023088,10.023088 45 0 0 136.97691,125 Z"
         id="path38" />
    </g>
    <g
       id="g63"
       transform="translate(-4.48846,33)">
      <g
         id="g44"
         style="fill:#000000"
         transform="translate(152.48846,-1)">
        <path
           style="fill:#000000"
           d="M 20,125 5,150 h 10 l 15,-25 z"
           id="path41" />
        <path
           style="fill:#000000"
           d="M 20,125 5,150 h 10 l 15,-25 z"
           id="path42" />
        <path
           style="fill:#000000"
           d="M 33,125 18,150 H 28 L 43,125 Z"
           id="path43" />
        <path
           style="fill:#000000"
           d="M 46,125 31,150 H 147 V 135.02309 A 10.023088,10.023088 45 0 0 136.97691,125 Z"
           id="path44" />
      </g>
      <g
         id="g48"
         transform="translate(151.48846,-2)">
        <path
           style="fill:#ffffff"
           d="M 20,125 5,150 h 10 l 15,-25 z"
           id="path45" />
        <path
           style="fill:#ffffff"
           d="M 20,125 5,150 h 10 l 15,-25 z"
           id="path46" />
        <path
           style="fill:#ffffff"
           d="M 33,125 18,150 H 28 L 43,125 Z"
           id="path47" />
        <path
           style="fill:#ffffff"
           d="M 46,125 31,150 H 147 V 135.02309 A 10.023088,10.023088 45 0 0 136.97691,125 Z"
           id="path48" />
      </g>
      <g
         id="g52"
         style="fill:#000000"
         transform="matrix(-1,0,0,1,429,-1)">
        <path
           style="fill:#000000"
           d="M 20,125 5,150 h 10 l 15,-25 z"
           id="path49" />
        <path
           style="fill:#000000"
           d="M 20,125 5,150 h 10 l 15,-25 z"
           id="path50" />
        <path
           style="fill:#000000"
           d="M 33,125 18,150 H 28 L 43,125 Z"
           id="path51" />
        <path
           style="fill:#000000"
           d="M 46,125 31,150 H 147 V 135.02309 A 10.023088,10.023088 45 0 0 136.97691,125 Z"
           id="path52" />
      </g>
      <g
         id="g56"
         transform="matrix(-1,0,0,1,428,-2)">
        <path
           style="fill:#ffffff"
           d="M 20,125 5,150 h 10 l 15,-25 z"
           id="path53" />
        <path
           style="fill:#ffffff"
           d="M 20,125 5,150 h 10 l 15,-25 z"
           id="path54" />
        <path
           style="fill:#ffffff"
           d="M 33,125 18,150 H 28 L 43,125 Z"
           id="path55" />
        <path
           style="fill:#ffffff"
           d="M 46,125 31,150 H 147 V 135.02309 A 10.023088,10.023088 45 0 0 136.97691,125 Z"
           id="path56" />
      </g>
    </g>
    <path
       style="fill:url(#meshgradient738);fill-opacity:1"
       d="m 79,1 -5,35 h 70 V 1 Z"
       id="path717" />
    <path
       style="fill:#ffffff;fill-opacity:0.583933"
       d="m 79,1 -5,35 h 70 V 1 Z"
       id="path2630" />
  </g>
  <g
     id="layer2"
     style="display:inline">
    <path
       style="fill:#000000"
       d="M 1,97 11,87 21,97 11,107 Z"
       id="path4-4" />
    <path
       style="display:inline;fill:#000000"
       d="M 164,57 154,47 144,57 154,67 Z"
       id="path10" />
    <path
       style="fill:#000000"
       d="M 1,57 11,47 21,57 11,67 Z"
       id="path4" />
    <path
       style="fill:#000000"
       d="m 164,97 -10,-10 -10,10 10,10 z"
       id="path14" />
    <path
       style="fill:#ffffff;stroke-width:0.833333"
       d="M 3.0000001,97 11,89 l 8,8 -8,8 z"
       id="path5-5" />
    <path
       style="fill:#808080;stroke-width:0.729167"
       d="m 5,97 6,-6 6,6 -6,6 z"
       id="path7" />
    <path
       style="fill:#ffffff;stroke-width:0.833333"
       d="m 3,57 8,-8 8,8 -8,8 z"
       id="path5" />
    <path
       style="fill:#ffffff;stroke-width:0.833333"
       d="m 162,97 -8,-8 -8,8 8,8 z"
       id="path15" />
    <path
       style="fill:#808080;stroke-width:0.729167"
       d="m 160,97 -6,-6 -6,6 6,6 z"
       id="path16" />
    <path
       style="fill:#ffffff;stroke-width:0.833333"
       d="m 162,57 -8,-8 -8,8 8,8 z"
       id="path11" />
    <path
       style="display:inline;fill:#000000"
       d="M 195,12 185,2 175,12 185,22 Z"
       id="path17" />
    <path
       style="fill:#000000"
       d="M 195,34 185,24 175,34 185,44 Z"
       id="path18" />
    <path
       style="fill:#ffffff;stroke-width:0.833333"
       d="m 193,34 -8,-8 -8,8 8,8 z"
       id="path19" />
    <path
       style="fill:#808080;stroke-width:0.729167"
       d="m 191,34 -6,-6 -6,6 6,6 z"
       id="path20" />
    <path
       style="fill:#ffffff;stroke-width:0.833333"
       d="m 193,12 -8,-8 -8,8 8,8 z"
       id="path21" />
  </g>
</svg>
